<mxfile host="65bd71144e">
    <diagram id="L9CpYDXbvWMQD5tRD1lR" name="Page-1">
        <mxGraphModel dx="1083" dy="636" grid="1" gridSize="10" guides="1" tooltips="1" connect="1" arrows="1" fold="1" page="1" pageScale="1" pageWidth="850" pageHeight="1100" math="0" shadow="0">
            <root>
                <mxCell id="0"/>
                <mxCell id="1" parent="0"/>
                <mxCell id="2" value="Speech Recognition" style="swimlane;childLayout=stackLayout;resizeParent=1;resizeParentMax=0;startSize=20;html=1;" vertex="1" parent="1">
                    <mxGeometry x="20" y="90" width="1000" height="1610" as="geometry"/>
                </mxCell>
                <mxCell id="3" value="main.py" style="swimlane;startSize=20;html=1;" vertex="1" parent="2">
                    <mxGeometry y="20" width="160" height="1590" as="geometry"/>
                </mxCell>
                <mxCell id="10" value="" style="shape=umlLifeline;participant=umlControl;perimeter=lifelinePerimeter;whiteSpace=wrap;html=1;container=1;collapsible=0;recursiveResize=0;verticalAlign=top;spacingTop=36;outlineConnect=0;" vertex="1" parent="3">
                    <mxGeometry x="60" y="20" width="40" height="1570" as="geometry"/>
                </mxCell>
                <mxCell id="4" value="speech_recognition.py" style="swimlane;startSize=20;html=1;" vertex="1" parent="2">
                    <mxGeometry x="160" y="20" width="220" height="1590" as="geometry"/>
                </mxCell>
                <mxCell id="11" value="" style="shape=umlLifeline;participant=umlEntity;perimeter=lifelinePerimeter;whiteSpace=wrap;html=1;container=1;collapsible=0;recursiveResize=0;verticalAlign=top;spacingTop=36;outlineConnect=0;" vertex="1" parent="4">
                    <mxGeometry x="80" y="20" width="40" height="1570" as="geometry"/>
                </mxCell>
                <mxCell id="15" value="" style="html=1;points=[];perimeter=orthogonalPerimeter;" vertex="1" parent="11">
                    <mxGeometry x="15" y="150" width="10" height="700" as="geometry"/>
                </mxCell>
                <mxCell id="30" value="" style="html=1;points=[];perimeter=orthogonalPerimeter;fontSize=8;" vertex="1" parent="11">
                    <mxGeometry x="15" y="880" width="10" height="650" as="geometry"/>
                </mxCell>
                <mxCell id="6" value="record_process_audio.py" style="swimlane;startSize=20;html=1;" vertex="1" parent="2">
                    <mxGeometry x="380" y="20" width="190" height="1590" as="geometry"/>
                </mxCell>
                <mxCell id="13" value="" style="shape=umlLifeline;participant=umlEntity;perimeter=lifelinePerimeter;whiteSpace=wrap;html=1;container=1;collapsible=0;recursiveResize=0;verticalAlign=top;spacingTop=36;outlineConnect=0;" vertex="1" parent="6">
                    <mxGeometry x="75" y="20" width="40" height="1570" as="geometry"/>
                </mxCell>
                <mxCell id="18" value="" style="html=1;points=[];perimeter=orthogonalPerimeter;fontSize=8;" vertex="1" parent="13">
                    <mxGeometry x="15" y="210" width="10" height="300" as="geometry"/>
                </mxCell>
                <mxCell id="33" value="" style="html=1;points=[];perimeter=orthogonalPerimeter;fontSize=8;" vertex="1" parent="13">
                    <mxGeometry x="15" y="900" width="10" height="420" as="geometry"/>
                </mxCell>
                <mxCell id="37" value="" style="html=1;points=[];perimeter=orthogonalPerimeter;fontSize=8;" vertex="1" parent="13">
                    <mxGeometry x="15" y="520" width="10" height="290" as="geometry"/>
                </mxCell>
                <mxCell id="7" value="helperf.py" style="swimlane;startSize=20;html=1;" vertex="1" parent="2">
                    <mxGeometry x="570" y="20" width="190" height="1590" as="geometry"/>
                </mxCell>
                <mxCell id="14" value="" style="shape=umlLifeline;participant=umlEntity;perimeter=lifelinePerimeter;whiteSpace=wrap;html=1;container=1;collapsible=0;recursiveResize=0;verticalAlign=top;spacingTop=36;outlineConnect=0;" vertex="1" parent="7">
                    <mxGeometry x="40" y="20" width="40" height="1570" as="geometry"/>
                </mxCell>
                <mxCell id="21" value="" style="html=1;points=[];perimeter=orthogonalPerimeter;fontSize=8;" vertex="1" parent="14">
                    <mxGeometry x="15" y="220" width="10" height="80" as="geometry"/>
                </mxCell>
                <mxCell id="24" value="" style="html=1;points=[];perimeter=orthogonalPerimeter;fontSize=8;" vertex="1" parent="14">
                    <mxGeometry x="15" y="310" width="10" height="80" as="geometry"/>
                </mxCell>
                <mxCell id="27" value="" style="html=1;points=[];perimeter=orthogonalPerimeter;fontSize=8;" vertex="1" parent="14">
                    <mxGeometry x="15" y="410" width="10" height="80" as="geometry"/>
                </mxCell>
                <mxCell id="40" value="" style="html=1;points=[];perimeter=orthogonalPerimeter;fontSize=8;" vertex="1" parent="14">
                    <mxGeometry x="15" y="530" width="10" height="80" as="geometry"/>
                </mxCell>
                <mxCell id="43" value="" style="html=1;points=[];perimeter=orthogonalPerimeter;fontSize=8;" vertex="1" parent="14">
                    <mxGeometry x="15" y="620" width="10" height="80" as="geometry"/>
                </mxCell>
                <mxCell id="46" value="" style="html=1;points=[];perimeter=orthogonalPerimeter;fontSize=8;" vertex="1" parent="14">
                    <mxGeometry x="15" y="710" width="10" height="80" as="geometry"/>
                </mxCell>
                <mxCell id="51" value="" style="html=1;points=[];perimeter=orthogonalPerimeter;fontSize=8;" vertex="1" parent="14">
                    <mxGeometry x="15" y="910" width="10" height="80" as="geometry"/>
                </mxCell>
                <mxCell id="54" value="" style="html=1;points=[];perimeter=orthogonalPerimeter;fontSize=8;" vertex="1" parent="14">
                    <mxGeometry x="15" y="1000" width="10" height="80" as="geometry"/>
                </mxCell>
                <mxCell id="57" value="" style="html=1;points=[];perimeter=orthogonalPerimeter;fontSize=8;" vertex="1" parent="14">
                    <mxGeometry x="15" y="1090" width="10" height="80" as="geometry"/>
                </mxCell>
                <mxCell id="60" value="" style="html=1;points=[];perimeter=orthogonalPerimeter;fontSize=8;" vertex="1" parent="14">
                    <mxGeometry x="15" y="1190" width="10" height="110" as="geometry"/>
                </mxCell>
                <mxCell id="8" value="librosa.feature" style="swimlane;startSize=20;html=1;" vertex="1" parent="2">
                    <mxGeometry x="760" y="20" width="120" height="1590" as="geometry">
                        <mxRectangle x="730" y="20" width="40" height="1590" as="alternateBounds"/>
                    </mxGeometry>
                </mxCell>
                <mxCell id="63" value="" style="shape=umlLifeline;participant=umlEntity;perimeter=lifelinePerimeter;whiteSpace=wrap;html=1;container=1;collapsible=0;recursiveResize=0;verticalAlign=top;spacingTop=36;outlineConnect=0;fontSize=8;" vertex="1" parent="8">
                    <mxGeometry x="40" y="20" width="40" height="1570" as="geometry"/>
                </mxCell>
                <mxCell id="64" value="" style="html=1;points=[];perimeter=orthogonalPerimeter;fontSize=8;" vertex="1" parent="63">
                    <mxGeometry x="15" y="1200" width="10" height="80" as="geometry"/>
                </mxCell>
                <mxCell id="9" value="dtw" style="swimlane;startSize=20;html=1;" vertex="1" parent="2">
                    <mxGeometry x="880" y="20" width="120" height="1590" as="geometry">
                        <mxRectangle x="880" y="20" width="40" height="1590" as="alternateBounds"/>
                    </mxGeometry>
                </mxCell>
                <mxCell id="72" value="" style="shape=umlLifeline;participant=umlEntity;perimeter=lifelinePerimeter;whiteSpace=wrap;html=1;container=1;collapsible=0;recursiveResize=0;verticalAlign=top;spacingTop=36;outlineConnect=0;fontSize=8;" vertex="1" parent="9">
                    <mxGeometry x="40" y="20" width="40" height="1570" as="geometry"/>
                </mxCell>
                <mxCell id="73" value="" style="html=1;points=[];perimeter=orthogonalPerimeter;fontSize=8;" vertex="1" parent="72">
                    <mxGeometry x="15" y="1330" width="10" height="80" as="geometry"/>
                </mxCell>
                <mxCell id="16" value="&lt;font style=&quot;font-size: 8px;&quot;&gt;&lt;b&gt;&lt;span style=&quot;border-color: var(--border-color); font-family: Consolas, &amp;quot;Courier New&amp;quot;, monospace; text-align: left; color: rgb(38, 139, 210);&quot;&gt;training&lt;/span&gt;&lt;span style=&quot;border-color: var(--border-color); font-family: Consolas, &amp;quot;Courier New&amp;quot;, monospace; text-align: left; color: rgb(42, 161, 152);&quot;&gt;(&lt;/span&gt;&lt;span style=&quot;border-color: var(--border-color); font-family: Consolas, &amp;quot;Courier New&amp;quot;, monospace; text-align: left; color: rgb(203, 75, 22);&quot;&gt;keywords&lt;/span&gt;&lt;span style=&quot;border-color: var(--border-color); font-family: Consolas, &amp;quot;Courier New&amp;quot;, monospace; text-align: left; color: rgb(42, 161, 152);&quot;&gt;,&lt;/span&gt;&lt;span style=&quot;color: rgb(51, 51, 51); font-family: Consolas, &amp;quot;Courier New&amp;quot;, monospace; text-align: left; background-color: rgb(253, 246, 227);&quot;&gt;&amp;nbsp;&lt;/span&gt;&lt;span style=&quot;border-color: var(--border-color); font-family: Consolas, &amp;quot;Courier New&amp;quot;, monospace; text-align: left; color: rgb(203, 75, 22);&quot;&gt;commandos&lt;/span&gt;&lt;span style=&quot;border-color: var(--border-color); font-family: Consolas, &amp;quot;Courier New&amp;quot;, monospace; text-align: left; color: rgb(42, 161, 152);&quot;&gt;,&lt;/span&gt;&lt;span style=&quot;color: rgb(51, 51, 51); font-family: Consolas, &amp;quot;Courier New&amp;quot;, monospace; text-align: left; background-color: rgb(253, 246, 227);&quot;&gt;&amp;nbsp;&lt;/span&gt;&lt;span style=&quot;border-color: var(--border-color); font-family: Consolas, &amp;quot;Courier New&amp;quot;, monospace; text-align: left; color: rgb(203, 75, 22);&quot;&gt;mode&lt;/span&gt;&lt;span style=&quot;border-color: var(--border-color); font-family: Consolas, &amp;quot;Courier New&amp;quot;, monospace; text-align: left; color: rgb(42, 161, 152);&quot;&gt;)&lt;/span&gt;&lt;/b&gt;&lt;/font&gt;" style="html=1;verticalAlign=bottom;endArrow=block;entryX=0;entryY=0;" edge="1" target="15" parent="2" source="10">
                    <mxGeometry x="0.0028" relative="1" as="geometry">
                        <mxPoint x="185" y="130" as="sourcePoint"/>
                        <mxPoint as="offset"/>
                    </mxGeometry>
                </mxCell>
                <mxCell id="17" value="templates_keywords, templates_commandos" style="html=1;verticalAlign=bottom;endArrow=open;dashed=1;endSize=8;exitX=0;exitY=0.95;fontSize=8;" edge="1" source="15" parent="2" target="10">
                    <mxGeometry relative="1" as="geometry">
                        <mxPoint x="185" y="206" as="targetPoint"/>
                    </mxGeometry>
                </mxCell>
                <mxCell id="20" value="template" style="html=1;verticalAlign=bottom;endArrow=open;dashed=1;endSize=8;exitX=0;exitY=0.95;fontSize=8;" edge="1" source="18" parent="2" target="11">
                    <mxGeometry relative="1" as="geometry">
                        <mxPoint x="610" y="246" as="targetPoint"/>
                    </mxGeometry>
                </mxCell>
                <mxCell id="19" value="&lt;font style=&quot;font-size: 8px;&quot;&gt;&lt;span style=&quot;border-color: var(--border-color); font-family: Consolas, &amp;quot;Courier New&amp;quot;, monospace; text-align: left; color: rgb(38, 139, 210);&quot;&gt;record_process_audio&lt;/span&gt;&lt;span style=&quot;border-color: var(--border-color); font-family: Consolas, &amp;quot;Courier New&amp;quot;, monospace; text-align: left; color: rgb(42, 161, 152);&quot;&gt;()&lt;/span&gt;&lt;/font&gt;" style="html=1;verticalAlign=bottom;endArrow=block;entryX=0;entryY=0;fontSize=8;" edge="1" target="18" parent="2" source="11">
                    <mxGeometry relative="1" as="geometry">
                        <mxPoint x="610" y="170" as="sourcePoint"/>
                    </mxGeometry>
                </mxCell>
                <mxCell id="22" value="&lt;font style=&quot;font-size: 8px;&quot;&gt;&lt;span style=&quot;border-color: var(--border-color); font-family: Consolas, &amp;quot;Courier New&amp;quot;, monospace; text-align: left; color: rgb(38, 139, 210);&quot;&gt;applyFilter&lt;/span&gt;&lt;span style=&quot;border-color: var(--border-color); font-family: Consolas, &amp;quot;Courier New&amp;quot;, monospace; text-align: left; color: rgb(42, 161, 152);&quot;&gt;(&lt;/span&gt;&lt;span style=&quot;border-color: var(--border-color); font-family: Consolas, &amp;quot;Courier New&amp;quot;, monospace; text-align: left; color: rgb(203, 75, 22);&quot;&gt;ein&lt;/span&gt;&lt;span style=&quot;border-color: var(--border-color); font-family: Consolas, &amp;quot;Courier New&amp;quot;, monospace; text-align: left; color: rgb(42, 161, 152);&quot;&gt;,&lt;/span&gt;&lt;span style=&quot;color: rgb(51, 51, 51); font-family: Consolas, &amp;quot;Courier New&amp;quot;, monospace; text-align: left; background-color: rgb(253, 246, 227);&quot;&gt;&amp;nbsp;&lt;/span&gt;&lt;span style=&quot;border-color: var(--border-color); font-family: Consolas, &amp;quot;Courier New&amp;quot;, monospace; text-align: left; color: rgb(203, 75, 22);&quot;&gt;win_han&lt;/span&gt;&lt;span style=&quot;border-color: var(--border-color); font-family: Consolas, &amp;quot;Courier New&amp;quot;, monospace; text-align: left; color: rgb(42, 161, 152);&quot;&gt;,&lt;/span&gt;&lt;span style=&quot;color: rgb(51, 51, 51); font-family: Consolas, &amp;quot;Courier New&amp;quot;, monospace; text-align: left; background-color: rgb(253, 246, 227);&quot;&gt;&amp;nbsp;&lt;/span&gt;&lt;span style=&quot;border-color: var(--border-color); font-family: Consolas, &amp;quot;Courier New&amp;quot;, monospace; text-align: left; color: rgb(203, 75, 22);&quot;&gt;lp&lt;/span&gt;&lt;span style=&quot;border-color: var(--border-color); font-family: Consolas, &amp;quot;Courier New&amp;quot;, monospace; text-align: left; color: rgb(42, 161, 152);&quot;&gt;,&lt;/span&gt;&lt;span style=&quot;color: rgb(51, 51, 51); font-family: Consolas, &amp;quot;Courier New&amp;quot;, monospace; text-align: left; background-color: rgb(253, 246, 227);&quot;&gt;&amp;nbsp;&lt;/span&gt;&lt;span style=&quot;border-color: var(--border-color); font-family: Consolas, &amp;quot;Courier New&amp;quot;, monospace; text-align: left; color: rgb(203, 75, 22);&quot;&gt;hp&lt;/span&gt;&lt;span style=&quot;border-color: var(--border-color); font-family: Consolas, &amp;quot;Courier New&amp;quot;, monospace; text-align: left; color: rgb(42, 161, 152);&quot;&gt;)&lt;/span&gt;&lt;/font&gt;" style="html=1;verticalAlign=bottom;endArrow=block;entryX=0;entryY=0;fontSize=8;" edge="1" target="21" parent="2" source="13">
                    <mxGeometry relative="1" as="geometry">
                        <mxPoint x="795" y="150" as="sourcePoint"/>
                    </mxGeometry>
                </mxCell>
                <mxCell id="23" value="win" style="html=1;verticalAlign=bottom;endArrow=open;dashed=1;endSize=8;exitX=0;exitY=0.95;fontSize=8;" edge="1" source="21" parent="2" target="13">
                    <mxGeometry relative="1" as="geometry">
                        <mxPoint x="795" y="226" as="targetPoint"/>
                    </mxGeometry>
                </mxCell>
                <mxCell id="25" value="&lt;font style=&quot;font-size: 8px;&quot;&gt;&lt;span style=&quot;border-color: var(--border-color); font-family: Consolas, &amp;quot;Courier New&amp;quot;, monospace; text-align: left; color: rgb(38, 139, 210);&quot;&gt;applyFFT&lt;/span&gt;&lt;span style=&quot;border-color: var(--border-color); font-family: Consolas, &amp;quot;Courier New&amp;quot;, monospace; text-align: left; color: rgb(42, 161, 152);&quot;&gt;(&lt;/span&gt;&lt;span style=&quot;border-color: var(--border-color); font-family: Consolas, &amp;quot;Courier New&amp;quot;, monospace; text-align: left; color: rgb(203, 75, 22);&quot;&gt;data_int&lt;/span&gt;&lt;span style=&quot;border-color: var(--border-color); font-family: Consolas, &amp;quot;Courier New&amp;quot;, monospace; text-align: left; color: rgb(42, 161, 152);&quot;&gt;,&lt;/span&gt;&lt;span style=&quot;color: rgb(51, 51, 51); font-family: Consolas, &amp;quot;Courier New&amp;quot;, monospace; text-align: left; background-color: rgb(253, 246, 227);&quot;&gt;&amp;nbsp;&lt;/span&gt;&lt;span style=&quot;border-color: var(--border-color); font-family: Consolas, &amp;quot;Courier New&amp;quot;, monospace; text-align: left; color: rgb(203, 75, 22);&quot;&gt;RATE&lt;/span&gt;&lt;span style=&quot;border-color: var(--border-color); font-family: Consolas, &amp;quot;Courier New&amp;quot;, monospace; text-align: left; color: rgb(42, 161, 152);&quot;&gt;,&lt;/span&gt;&lt;span style=&quot;color: rgb(51, 51, 51); font-family: Consolas, &amp;quot;Courier New&amp;quot;, monospace; text-align: left; background-color: rgb(253, 246, 227);&quot;&gt;&amp;nbsp;&lt;/span&gt;&lt;span style=&quot;border-color: var(--border-color); font-family: Consolas, &amp;quot;Courier New&amp;quot;, monospace; text-align: left; color: rgb(203, 75, 22);&quot;&gt;win_han&lt;/span&gt;&lt;span style=&quot;border-color: var(--border-color); font-family: Consolas, &amp;quot;Courier New&amp;quot;, monospace; text-align: left; color: rgb(42, 161, 152);&quot;&gt;,&lt;/span&gt;&lt;span style=&quot;color: rgb(51, 51, 51); font-family: Consolas, &amp;quot;Courier New&amp;quot;, monospace; text-align: left; background-color: rgb(253, 246, 227);&quot;&gt;&amp;nbsp;&lt;/span&gt;&lt;span style=&quot;border-color: var(--border-color); font-family: Consolas, &amp;quot;Courier New&amp;quot;, monospace; text-align: left; color: rgb(203, 75, 22);&quot;&gt;lp&lt;/span&gt;&lt;span style=&quot;border-color: var(--border-color); font-family: Consolas, &amp;quot;Courier New&amp;quot;, monospace; text-align: left; color: rgb(42, 161, 152);&quot;&gt;,&lt;/span&gt;&lt;span style=&quot;color: rgb(51, 51, 51); font-family: Consolas, &amp;quot;Courier New&amp;quot;, monospace; text-align: left; background-color: rgb(253, 246, 227);&quot;&gt;&amp;nbsp;&lt;/span&gt;&lt;span style=&quot;border-color: var(--border-color); font-family: Consolas, &amp;quot;Courier New&amp;quot;, monospace; text-align: left; color: rgb(203, 75, 22);&quot;&gt;hp&lt;/span&gt;&lt;span style=&quot;border-color: var(--border-color); font-family: Consolas, &amp;quot;Courier New&amp;quot;, monospace; text-align: left; color: rgb(42, 161, 152);&quot;&gt;)&lt;/span&gt;&lt;/font&gt;" style="html=1;verticalAlign=bottom;endArrow=block;entryX=0;entryY=0;fontSize=8;" edge="1" parent="2" target="24" source="13">
                    <mxGeometry relative="1" as="geometry">
                        <mxPoint x="795" y="240" as="sourcePoint"/>
                    </mxGeometry>
                </mxCell>
                <mxCell id="26" value="fft_norm" style="html=1;verticalAlign=bottom;endArrow=open;dashed=1;endSize=8;exitX=0;exitY=0.95;fontSize=8;" edge="1" parent="2" source="24" target="13">
                    <mxGeometry relative="1" as="geometry">
                        <mxPoint x="795" y="316" as="targetPoint"/>
                    </mxGeometry>
                </mxCell>
                <mxCell id="28" value="&lt;font style=&quot;font-size: 8px;&quot;&gt;&lt;span style=&quot;border-color: var(--border-color); font-family: Consolas, &amp;quot;Courier New&amp;quot;, monospace; text-align: left; color: rgb(38, 139, 210);&quot;&gt;extractFeatures&lt;/span&gt;&lt;span style=&quot;border-color: var(--border-color); font-family: Consolas, &amp;quot;Courier New&amp;quot;, monospace; text-align: left; color: rgb(42, 161, 152);&quot;&gt;(&lt;/span&gt;&lt;span style=&quot;border-color: var(--border-color); font-family: Consolas, &amp;quot;Courier New&amp;quot;, monospace; text-align: left; color: rgb(203, 75, 22);&quot;&gt;fft_norm&lt;/span&gt;&lt;span style=&quot;border-color: var(--border-color); font-family: Consolas, &amp;quot;Courier New&amp;quot;, monospace; text-align: left; color: rgb(42, 161, 152);&quot;&gt;,&lt;/span&gt;&lt;span style=&quot;font-family: Consolas, &amp;quot;Courier New&amp;quot;, monospace; text-align: left; background-color: rgb(253, 246, 227);&quot;&gt;&amp;nbsp;&lt;/span&gt;&lt;span style=&quot;border-color: var(--border-color); font-family: Consolas, &amp;quot;Courier New&amp;quot;, monospace; text-align: left; color: rgb(203, 75, 22);&quot;&gt;hf_range&lt;/span&gt;&lt;span style=&quot;border-color: var(--border-color); font-family: Consolas, &amp;quot;Courier New&amp;quot;, monospace; text-align: left; color: rgb(42, 161, 152);&quot;&gt;,&lt;/span&gt;&lt;font style=&quot;border-color: var(--border-color); font-family: Consolas, &amp;quot;Courier New&amp;quot;, monospace; text-align: left; font-size: 8px;&quot; color=&quot;#333333&quot;&gt;&amp;nbsp;&lt;/font&gt;&lt;span style=&quot;border-color: var(--border-color); font-family: Consolas, &amp;quot;Courier New&amp;quot;, monospace; text-align: left; color: rgb(203, 75, 22);&quot;&gt;lf_range&lt;/span&gt;&lt;span style=&quot;border-color: var(--border-color); font-family: Consolas, &amp;quot;Courier New&amp;quot;, monospace; text-align: left; color: rgb(42, 161, 152);&quot;&gt;,&lt;/span&gt;&lt;span style=&quot;border-color: var(--border-color); font-family: Consolas, &amp;quot;Courier New&amp;quot;, monospace; text-align: left; color: rgb(203, 75, 22);&quot;&gt;vol_tres&lt;/span&gt;&lt;span style=&quot;border-color: var(--border-color); font-family: Consolas, &amp;quot;Courier New&amp;quot;, monospace; text-align: left; color: rgb(42, 161, 152);&quot;&gt;,&lt;/span&gt;&lt;span style=&quot;font-family: Consolas, &amp;quot;Courier New&amp;quot;, monospace; text-align: left; background-color: rgb(253, 246, 227);&quot;&gt;&amp;nbsp;&lt;/span&gt;&lt;span style=&quot;border-color: var(--border-color); font-family: Consolas, &amp;quot;Courier New&amp;quot;, monospace; text-align: left; color: rgb(203, 75, 22);&quot;&gt;mode&lt;/span&gt;&lt;span style=&quot;border-color: var(--border-color); font-family: Consolas, &amp;quot;Courier New&amp;quot;, monospace; text-align: left; color: rgb(42, 161, 152);&quot;&gt;=&lt;/span&gt;&lt;span style=&quot;border-color: var(--border-color); font-family: Consolas, &amp;quot;Courier New&amp;quot;, monospace; text-align: left; color: rgb(42, 161, 152);&quot;&gt;&quot;&lt;/span&gt;&lt;span style=&quot;border-color: var(--border-color); font-family: Consolas, &amp;quot;Courier New&amp;quot;, monospace; text-align: left; color: rgb(133, 153, 0);&quot;&gt;on-off-set&lt;/span&gt;&lt;span style=&quot;border-color: var(--border-color); font-family: Consolas, &amp;quot;Courier New&amp;quot;, monospace; text-align: left; color: rgb(42, 161, 152);&quot;&gt;&quot;&lt;/span&gt;&lt;span style=&quot;border-color: var(--border-color); font-family: Consolas, &amp;quot;Courier New&amp;quot;, monospace; text-align: left; color: rgb(42, 161, 152);&quot;&gt;)&lt;/span&gt;&lt;/font&gt;" style="html=1;verticalAlign=bottom;endArrow=block;entryX=0;entryY=0;fontSize=8;" edge="1" parent="2" target="27" source="13">
                    <mxGeometry relative="1" as="geometry">
                        <mxPoint x="795" y="330" as="sourcePoint"/>
                    </mxGeometry>
                </mxCell>
                <mxCell id="29" value="features" style="html=1;verticalAlign=bottom;endArrow=open;dashed=1;endSize=8;exitX=0;exitY=0.95;fontSize=8;" edge="1" parent="2" source="27" target="13">
                    <mxGeometry relative="1" as="geometry">
                        <mxPoint x="795" y="406" as="targetPoint"/>
                    </mxGeometry>
                </mxCell>
                <mxCell id="31" value="&lt;font style=&quot;font-size: 8px;&quot;&gt;&lt;span style=&quot;border-color: var(--border-color); font-family: Consolas, &amp;quot;Courier New&amp;quot;, monospace; text-align: left; color: rgb(38, 139, 210);&quot;&gt;recognize&lt;/span&gt;&lt;span style=&quot;border-color: var(--border-color); font-family: Consolas, &amp;quot;Courier New&amp;quot;, monospace; text-align: left; color: rgb(42, 161, 152);&quot;&gt;(&lt;/span&gt;&lt;span style=&quot;border-color: var(--border-color); font-family: Consolas, &amp;quot;Courier New&amp;quot;, monospace; text-align: left; color: rgb(203, 75, 22);&quot;&gt;templates&lt;/span&gt;&lt;span style=&quot;border-color: var(--border-color); font-family: Consolas, &amp;quot;Courier New&amp;quot;, monospace; text-align: left; color: rgb(42, 161, 152);&quot;&gt;,&lt;/span&gt;&lt;span style=&quot;color: rgb(51, 51, 51); font-family: Consolas, &amp;quot;Courier New&amp;quot;, monospace; text-align: left; background-color: rgb(253, 246, 227);&quot;&gt;&amp;nbsp;&lt;/span&gt;&lt;span style=&quot;border-color: var(--border-color); font-family: Consolas, &amp;quot;Courier New&amp;quot;, monospace; text-align: left; color: rgb(203, 75, 22);&quot;&gt;mode&lt;/span&gt;&lt;span style=&quot;border-color: var(--border-color); font-family: Consolas, &amp;quot;Courier New&amp;quot;, monospace; text-align: left; color: rgb(42, 161, 152);&quot;&gt;)&lt;/span&gt;&lt;/font&gt;" style="html=1;verticalAlign=bottom;endArrow=block;entryX=0;entryY=0;fontSize=8;" edge="1" target="30" parent="2" source="10">
                    <mxGeometry relative="1" as="geometry">
                        <mxPoint x="185" y="475" as="sourcePoint"/>
                    </mxGeometry>
                </mxCell>
                <mxCell id="32" value="match, execution_time" style="html=1;verticalAlign=bottom;endArrow=open;dashed=1;endSize=8;exitX=0;exitY=0.95;fontSize=8;" edge="1" source="30" parent="2" target="10">
                    <mxGeometry relative="1" as="geometry">
                        <mxPoint x="185" y="551" as="targetPoint"/>
                    </mxGeometry>
                </mxCell>
                <mxCell id="34" value="&lt;span style=&quot;border-color: var(--border-color); font-family: Consolas, &amp;quot;Courier New&amp;quot;, monospace; text-align: left; color: rgb(38, 139, 210);&quot;&gt;record_process_audio&lt;/span&gt;&lt;span style=&quot;border-color: var(--border-color); font-family: Consolas, &amp;quot;Courier New&amp;quot;, monospace; text-align: left; color: rgb(42, 161, 152);&quot;&gt;()&lt;/span&gt;" style="html=1;verticalAlign=bottom;endArrow=block;entryX=0;entryY=0;fontSize=8;" edge="1" target="33" parent="2" source="11">
                    <mxGeometry relative="1" as="geometry">
                        <mxPoint x="610" y="500" as="sourcePoint"/>
                    </mxGeometry>
                </mxCell>
                <mxCell id="35" value="sample" style="html=1;verticalAlign=bottom;endArrow=open;dashed=1;endSize=8;exitX=0;exitY=0.95;fontSize=8;" edge="1" source="33" parent="2" target="11">
                    <mxGeometry relative="1" as="geometry">
                        <mxPoint x="610" y="576" as="targetPoint"/>
                    </mxGeometry>
                </mxCell>
                <mxCell id="38" value="&lt;span style=&quot;border-color: var(--border-color); font-family: Consolas, &amp;quot;Courier New&amp;quot;, monospace; text-align: left; color: rgb(38, 139, 210);&quot;&gt;record_process_audio&lt;/span&gt;&lt;span style=&quot;border-color: var(--border-color); font-family: Consolas, &amp;quot;Courier New&amp;quot;, monospace; text-align: left; color: rgb(42, 161, 152);&quot;&gt;()&lt;/span&gt;" style="html=1;verticalAlign=bottom;endArrow=block;entryX=0;entryY=0;fontSize=8;" edge="1" target="37" parent="2" source="11">
                    <mxGeometry relative="1" as="geometry">
                        <mxPoint x="610" y="440" as="sourcePoint"/>
                    </mxGeometry>
                </mxCell>
                <mxCell id="39" value="template" style="html=1;verticalAlign=bottom;endArrow=open;dashed=1;endSize=8;exitX=0;exitY=0.95;fontSize=8;" edge="1" source="37" parent="2" target="11">
                    <mxGeometry relative="1" as="geometry">
                        <mxPoint x="610" y="516" as="targetPoint"/>
                    </mxGeometry>
                </mxCell>
                <mxCell id="41" value="&lt;span style=&quot;border-color: var(--border-color); font-family: Consolas, &amp;quot;Courier New&amp;quot;, monospace; text-align: left; color: rgb(38, 139, 210);&quot;&gt;applyFilter&lt;/span&gt;&lt;span style=&quot;border-color: var(--border-color); font-family: Consolas, &amp;quot;Courier New&amp;quot;, monospace; text-align: left; color: rgb(42, 161, 152);&quot;&gt;(&lt;/span&gt;&lt;span style=&quot;border-color: var(--border-color); font-family: Consolas, &amp;quot;Courier New&amp;quot;, monospace; text-align: left; color: rgb(203, 75, 22);&quot;&gt;ein&lt;/span&gt;&lt;span style=&quot;border-color: var(--border-color); font-family: Consolas, &amp;quot;Courier New&amp;quot;, monospace; text-align: left; color: rgb(42, 161, 152);&quot;&gt;,&lt;/span&gt;&lt;span style=&quot;border-color: var(--border-color); color: rgb(51, 51, 51); font-family: Consolas, &amp;quot;Courier New&amp;quot;, monospace; text-align: left; background-color: rgb(253, 246, 227);&quot;&gt;&amp;nbsp;&lt;/span&gt;&lt;span style=&quot;border-color: var(--border-color); font-family: Consolas, &amp;quot;Courier New&amp;quot;, monospace; text-align: left; color: rgb(203, 75, 22);&quot;&gt;win_han&lt;/span&gt;&lt;span style=&quot;border-color: var(--border-color); font-family: Consolas, &amp;quot;Courier New&amp;quot;, monospace; text-align: left; color: rgb(42, 161, 152);&quot;&gt;,&lt;/span&gt;&lt;span style=&quot;border-color: var(--border-color); color: rgb(51, 51, 51); font-family: Consolas, &amp;quot;Courier New&amp;quot;, monospace; text-align: left; background-color: rgb(253, 246, 227);&quot;&gt;&amp;nbsp;&lt;/span&gt;&lt;span style=&quot;border-color: var(--border-color); font-family: Consolas, &amp;quot;Courier New&amp;quot;, monospace; text-align: left; color: rgb(203, 75, 22);&quot;&gt;lp&lt;/span&gt;&lt;span style=&quot;border-color: var(--border-color); font-family: Consolas, &amp;quot;Courier New&amp;quot;, monospace; text-align: left; color: rgb(42, 161, 152);&quot;&gt;,&lt;/span&gt;&lt;span style=&quot;border-color: var(--border-color); color: rgb(51, 51, 51); font-family: Consolas, &amp;quot;Courier New&amp;quot;, monospace; text-align: left; background-color: rgb(253, 246, 227);&quot;&gt;&amp;nbsp;&lt;/span&gt;&lt;span style=&quot;border-color: var(--border-color); font-family: Consolas, &amp;quot;Courier New&amp;quot;, monospace; text-align: left; color: rgb(203, 75, 22);&quot;&gt;hp&lt;/span&gt;&lt;span style=&quot;border-color: var(--border-color); font-family: Consolas, &amp;quot;Courier New&amp;quot;, monospace; text-align: left; color: rgb(42, 161, 152);&quot;&gt;)&lt;/span&gt;" style="html=1;verticalAlign=bottom;endArrow=block;entryX=0;entryY=0;fontSize=8;" edge="1" target="40" parent="2" source="13">
                    <mxGeometry relative="1" as="geometry">
                        <mxPoint x="795" y="450" as="sourcePoint"/>
                    </mxGeometry>
                </mxCell>
                <mxCell id="42" value="win" style="html=1;verticalAlign=bottom;endArrow=open;dashed=1;endSize=8;exitX=0;exitY=0.95;fontSize=8;" edge="1" source="40" parent="2" target="13">
                    <mxGeometry relative="1" as="geometry">
                        <mxPoint x="730" y="560" as="targetPoint"/>
                    </mxGeometry>
                </mxCell>
                <mxCell id="44" value="&lt;span style=&quot;border-color: var(--border-color); font-family: Consolas, &amp;quot;Courier New&amp;quot;, monospace; text-align: left; color: rgb(38, 139, 210);&quot;&gt;applyFFT&lt;/span&gt;&lt;span style=&quot;border-color: var(--border-color); font-family: Consolas, &amp;quot;Courier New&amp;quot;, monospace; text-align: left; color: rgb(42, 161, 152);&quot;&gt;(&lt;/span&gt;&lt;span style=&quot;border-color: var(--border-color); font-family: Consolas, &amp;quot;Courier New&amp;quot;, monospace; text-align: left; color: rgb(203, 75, 22);&quot;&gt;data_int&lt;/span&gt;&lt;span style=&quot;border-color: var(--border-color); font-family: Consolas, &amp;quot;Courier New&amp;quot;, monospace; text-align: left; color: rgb(42, 161, 152);&quot;&gt;,&lt;/span&gt;&lt;span style=&quot;border-color: var(--border-color); color: rgb(51, 51, 51); font-family: Consolas, &amp;quot;Courier New&amp;quot;, monospace; text-align: left; background-color: rgb(253, 246, 227);&quot;&gt;&amp;nbsp;&lt;/span&gt;&lt;span style=&quot;border-color: var(--border-color); font-family: Consolas, &amp;quot;Courier New&amp;quot;, monospace; text-align: left; color: rgb(203, 75, 22);&quot;&gt;RATE&lt;/span&gt;&lt;span style=&quot;border-color: var(--border-color); font-family: Consolas, &amp;quot;Courier New&amp;quot;, monospace; text-align: left; color: rgb(42, 161, 152);&quot;&gt;,&lt;/span&gt;&lt;span style=&quot;border-color: var(--border-color); color: rgb(51, 51, 51); font-family: Consolas, &amp;quot;Courier New&amp;quot;, monospace; text-align: left; background-color: rgb(253, 246, 227);&quot;&gt;&amp;nbsp;&lt;/span&gt;&lt;span style=&quot;border-color: var(--border-color); font-family: Consolas, &amp;quot;Courier New&amp;quot;, monospace; text-align: left; color: rgb(203, 75, 22);&quot;&gt;win_han&lt;/span&gt;&lt;span style=&quot;border-color: var(--border-color); font-family: Consolas, &amp;quot;Courier New&amp;quot;, monospace; text-align: left; color: rgb(42, 161, 152);&quot;&gt;,&lt;/span&gt;&lt;span style=&quot;border-color: var(--border-color); color: rgb(51, 51, 51); font-family: Consolas, &amp;quot;Courier New&amp;quot;, monospace; text-align: left; background-color: rgb(253, 246, 227);&quot;&gt;&amp;nbsp;&lt;/span&gt;&lt;span style=&quot;border-color: var(--border-color); font-family: Consolas, &amp;quot;Courier New&amp;quot;, monospace; text-align: left; color: rgb(203, 75, 22);&quot;&gt;lp&lt;/span&gt;&lt;span style=&quot;border-color: var(--border-color); font-family: Consolas, &amp;quot;Courier New&amp;quot;, monospace; text-align: left; color: rgb(42, 161, 152);&quot;&gt;,&lt;/span&gt;&lt;span style=&quot;border-color: var(--border-color); color: rgb(51, 51, 51); font-family: Consolas, &amp;quot;Courier New&amp;quot;, monospace; text-align: left; background-color: rgb(253, 246, 227);&quot;&gt;&amp;nbsp;&lt;/span&gt;&lt;span style=&quot;border-color: var(--border-color); font-family: Consolas, &amp;quot;Courier New&amp;quot;, monospace; text-align: left; color: rgb(203, 75, 22);&quot;&gt;hp&lt;/span&gt;&lt;span style=&quot;border-color: var(--border-color); font-family: Consolas, &amp;quot;Courier New&amp;quot;, monospace; text-align: left; color: rgb(42, 161, 152);&quot;&gt;)&lt;/span&gt;" style="html=1;verticalAlign=bottom;endArrow=block;entryX=0;entryY=0;fontSize=8;" edge="1" target="43" parent="2" source="13">
                    <mxGeometry relative="1" as="geometry">
                        <mxPoint x="795" y="540" as="sourcePoint"/>
                    </mxGeometry>
                </mxCell>
                <mxCell id="45" value="fft_norm" style="html=1;verticalAlign=bottom;endArrow=open;dashed=1;endSize=8;exitX=0;exitY=0.95;fontSize=8;" edge="1" source="43" parent="2" target="13">
                    <mxGeometry x="-0.0028" relative="1" as="geometry">
                        <mxPoint x="795" y="616" as="targetPoint"/>
                        <mxPoint as="offset"/>
                    </mxGeometry>
                </mxCell>
                <mxCell id="47" value="&lt;span style=&quot;border-color: var(--border-color); font-family: Consolas, &amp;quot;Courier New&amp;quot;, monospace; text-align: left; color: rgb(38, 139, 210);&quot;&gt;extractFeatures&lt;/span&gt;&lt;span style=&quot;border-color: var(--border-color); font-family: Consolas, &amp;quot;Courier New&amp;quot;, monospace; text-align: left; color: rgb(42, 161, 152);&quot;&gt;(&lt;/span&gt;&lt;span style=&quot;border-color: var(--border-color); font-family: Consolas, &amp;quot;Courier New&amp;quot;, monospace; text-align: left; color: rgb(203, 75, 22);&quot;&gt;fft_norm&lt;/span&gt;&lt;span style=&quot;border-color: var(--border-color); font-family: Consolas, &amp;quot;Courier New&amp;quot;, monospace; text-align: left; color: rgb(42, 161, 152);&quot;&gt;,&lt;/span&gt;&lt;span style=&quot;border-color: var(--border-color); font-family: Consolas, &amp;quot;Courier New&amp;quot;, monospace; text-align: left; background-color: rgb(253, 246, 227);&quot;&gt;&amp;nbsp;&lt;/span&gt;&lt;span style=&quot;border-color: var(--border-color); font-family: Consolas, &amp;quot;Courier New&amp;quot;, monospace; text-align: left; color: rgb(203, 75, 22);&quot;&gt;hf_range&lt;/span&gt;&lt;span style=&quot;border-color: var(--border-color); font-family: Consolas, &amp;quot;Courier New&amp;quot;, monospace; text-align: left; color: rgb(42, 161, 152);&quot;&gt;,&lt;/span&gt;&lt;font style=&quot;border-color: var(--border-color); font-family: Consolas, &amp;quot;Courier New&amp;quot;, monospace; text-align: left;&quot; color=&quot;#333333&quot;&gt;&amp;nbsp;&lt;/font&gt;&lt;span style=&quot;border-color: var(--border-color); font-family: Consolas, &amp;quot;Courier New&amp;quot;, monospace; text-align: left; color: rgb(203, 75, 22);&quot;&gt;lf_range&lt;/span&gt;&lt;span style=&quot;border-color: var(--border-color); font-family: Consolas, &amp;quot;Courier New&amp;quot;, monospace; text-align: left; color: rgb(42, 161, 152);&quot;&gt;,&lt;/span&gt;&lt;span style=&quot;border-color: var(--border-color); font-family: Consolas, &amp;quot;Courier New&amp;quot;, monospace; text-align: left; color: rgb(203, 75, 22);&quot;&gt;vol_tres&lt;/span&gt;&lt;span style=&quot;border-color: var(--border-color); font-family: Consolas, &amp;quot;Courier New&amp;quot;, monospace; text-align: left; color: rgb(42, 161, 152);&quot;&gt;,&lt;/span&gt;&lt;span style=&quot;border-color: var(--border-color); font-family: Consolas, &amp;quot;Courier New&amp;quot;, monospace; text-align: left; background-color: rgb(253, 246, 227);&quot;&gt;&amp;nbsp;&lt;/span&gt;&lt;span style=&quot;border-color: var(--border-color); font-family: Consolas, &amp;quot;Courier New&amp;quot;, monospace; text-align: left; color: rgb(203, 75, 22);&quot;&gt;mode&lt;/span&gt;&lt;span style=&quot;border-color: var(--border-color); font-family: Consolas, &amp;quot;Courier New&amp;quot;, monospace; text-align: left; color: rgb(42, 161, 152);&quot;&gt;=&lt;/span&gt;&lt;span style=&quot;border-color: var(--border-color); font-family: Consolas, &amp;quot;Courier New&amp;quot;, monospace; text-align: left; color: rgb(42, 161, 152);&quot;&gt;&quot;&lt;/span&gt;&lt;span style=&quot;border-color: var(--border-color); font-family: Consolas, &amp;quot;Courier New&amp;quot;, monospace; text-align: left; color: rgb(133, 153, 0);&quot;&gt;on-off-set&lt;/span&gt;&lt;span style=&quot;border-color: var(--border-color); font-family: Consolas, &amp;quot;Courier New&amp;quot;, monospace; text-align: left; color: rgb(42, 161, 152);&quot;&gt;&quot;&lt;/span&gt;&lt;span style=&quot;border-color: var(--border-color); font-family: Consolas, &amp;quot;Courier New&amp;quot;, monospace; text-align: left; color: rgb(42, 161, 152);&quot;&gt;)&lt;/span&gt;" style="html=1;verticalAlign=bottom;endArrow=block;entryX=0;entryY=0;fontSize=8;" edge="1" target="46" parent="2" source="13">
                    <mxGeometry relative="1" as="geometry">
                        <mxPoint x="795" y="630" as="sourcePoint"/>
                    </mxGeometry>
                </mxCell>
                <mxCell id="48" value="features" style="html=1;verticalAlign=bottom;endArrow=open;dashed=1;endSize=8;exitX=0;exitY=0.95;fontSize=8;" edge="1" source="46" parent="2" target="13">
                    <mxGeometry relative="1" as="geometry">
                        <mxPoint x="795" y="706" as="targetPoint"/>
                    </mxGeometry>
                </mxCell>
                <mxCell id="52" value="&lt;span style=&quot;border-color: var(--border-color); font-family: Consolas, &amp;quot;Courier New&amp;quot;, monospace; text-align: left; color: rgb(38, 139, 210);&quot;&gt;applyFilter&lt;/span&gt;&lt;span style=&quot;border-color: var(--border-color); font-family: Consolas, &amp;quot;Courier New&amp;quot;, monospace; text-align: left; color: rgb(42, 161, 152);&quot;&gt;(&lt;/span&gt;&lt;span style=&quot;border-color: var(--border-color); font-family: Consolas, &amp;quot;Courier New&amp;quot;, monospace; text-align: left; color: rgb(203, 75, 22);&quot;&gt;ein&lt;/span&gt;&lt;span style=&quot;border-color: var(--border-color); font-family: Consolas, &amp;quot;Courier New&amp;quot;, monospace; text-align: left; color: rgb(42, 161, 152);&quot;&gt;,&lt;/span&gt;&lt;span style=&quot;border-color: var(--border-color); color: rgb(51, 51, 51); font-family: Consolas, &amp;quot;Courier New&amp;quot;, monospace; text-align: left; background-color: rgb(253, 246, 227);&quot;&gt;&amp;nbsp;&lt;/span&gt;&lt;span style=&quot;border-color: var(--border-color); font-family: Consolas, &amp;quot;Courier New&amp;quot;, monospace; text-align: left; color: rgb(203, 75, 22);&quot;&gt;win_han&lt;/span&gt;&lt;span style=&quot;border-color: var(--border-color); font-family: Consolas, &amp;quot;Courier New&amp;quot;, monospace; text-align: left; color: rgb(42, 161, 152);&quot;&gt;,&lt;/span&gt;&lt;span style=&quot;border-color: var(--border-color); color: rgb(51, 51, 51); font-family: Consolas, &amp;quot;Courier New&amp;quot;, monospace; text-align: left; background-color: rgb(253, 246, 227);&quot;&gt;&amp;nbsp;&lt;/span&gt;&lt;span style=&quot;border-color: var(--border-color); font-family: Consolas, &amp;quot;Courier New&amp;quot;, monospace; text-align: left; color: rgb(203, 75, 22);&quot;&gt;lp&lt;/span&gt;&lt;span style=&quot;border-color: var(--border-color); font-family: Consolas, &amp;quot;Courier New&amp;quot;, monospace; text-align: left; color: rgb(42, 161, 152);&quot;&gt;,&lt;/span&gt;&lt;span style=&quot;border-color: var(--border-color); color: rgb(51, 51, 51); font-family: Consolas, &amp;quot;Courier New&amp;quot;, monospace; text-align: left; background-color: rgb(253, 246, 227);&quot;&gt;&amp;nbsp;&lt;/span&gt;&lt;span style=&quot;border-color: var(--border-color); font-family: Consolas, &amp;quot;Courier New&amp;quot;, monospace; text-align: left; color: rgb(203, 75, 22);&quot;&gt;hp&lt;/span&gt;&lt;span style=&quot;border-color: var(--border-color); font-family: Consolas, &amp;quot;Courier New&amp;quot;, monospace; text-align: left; color: rgb(42, 161, 152);&quot;&gt;)&lt;/span&gt;" style="html=1;verticalAlign=bottom;endArrow=block;entryX=0;entryY=0;fontSize=8;" edge="1" target="51" parent="2" source="13">
                    <mxGeometry relative="1" as="geometry">
                        <mxPoint x="595" y="950" as="sourcePoint"/>
                    </mxGeometry>
                </mxCell>
                <mxCell id="53" value="win" style="html=1;verticalAlign=bottom;endArrow=open;dashed=1;endSize=8;exitX=0;exitY=0.95;fontSize=8;" edge="1" source="51" parent="2" target="13">
                    <mxGeometry relative="1" as="geometry">
                        <mxPoint x="595" y="1026" as="targetPoint"/>
                    </mxGeometry>
                </mxCell>
                <mxCell id="55" value="&lt;span style=&quot;border-color: var(--border-color); font-family: Consolas, &amp;quot;Courier New&amp;quot;, monospace; text-align: left; color: rgb(38, 139, 210);&quot;&gt;applyFFT&lt;/span&gt;&lt;span style=&quot;border-color: var(--border-color); font-family: Consolas, &amp;quot;Courier New&amp;quot;, monospace; text-align: left; color: rgb(42, 161, 152);&quot;&gt;(&lt;/span&gt;&lt;span style=&quot;border-color: var(--border-color); font-family: Consolas, &amp;quot;Courier New&amp;quot;, monospace; text-align: left; color: rgb(203, 75, 22);&quot;&gt;data_int&lt;/span&gt;&lt;span style=&quot;border-color: var(--border-color); font-family: Consolas, &amp;quot;Courier New&amp;quot;, monospace; text-align: left; color: rgb(42, 161, 152);&quot;&gt;,&lt;/span&gt;&lt;span style=&quot;border-color: var(--border-color); color: rgb(51, 51, 51); font-family: Consolas, &amp;quot;Courier New&amp;quot;, monospace; text-align: left; background-color: rgb(253, 246, 227);&quot;&gt;&amp;nbsp;&lt;/span&gt;&lt;span style=&quot;border-color: var(--border-color); font-family: Consolas, &amp;quot;Courier New&amp;quot;, monospace; text-align: left; color: rgb(203, 75, 22);&quot;&gt;RATE&lt;/span&gt;&lt;span style=&quot;border-color: var(--border-color); font-family: Consolas, &amp;quot;Courier New&amp;quot;, monospace; text-align: left; color: rgb(42, 161, 152);&quot;&gt;,&lt;/span&gt;&lt;span style=&quot;border-color: var(--border-color); color: rgb(51, 51, 51); font-family: Consolas, &amp;quot;Courier New&amp;quot;, monospace; text-align: left; background-color: rgb(253, 246, 227);&quot;&gt;&amp;nbsp;&lt;/span&gt;&lt;span style=&quot;border-color: var(--border-color); font-family: Consolas, &amp;quot;Courier New&amp;quot;, monospace; text-align: left; color: rgb(203, 75, 22);&quot;&gt;win_han&lt;/span&gt;&lt;span style=&quot;border-color: var(--border-color); font-family: Consolas, &amp;quot;Courier New&amp;quot;, monospace; text-align: left; color: rgb(42, 161, 152);&quot;&gt;,&lt;/span&gt;&lt;span style=&quot;border-color: var(--border-color); color: rgb(51, 51, 51); font-family: Consolas, &amp;quot;Courier New&amp;quot;, monospace; text-align: left; background-color: rgb(253, 246, 227);&quot;&gt;&amp;nbsp;&lt;/span&gt;&lt;span style=&quot;border-color: var(--border-color); font-family: Consolas, &amp;quot;Courier New&amp;quot;, monospace; text-align: left; color: rgb(203, 75, 22);&quot;&gt;lp&lt;/span&gt;&lt;span style=&quot;border-color: var(--border-color); font-family: Consolas, &amp;quot;Courier New&amp;quot;, monospace; text-align: left; color: rgb(42, 161, 152);&quot;&gt;,&lt;/span&gt;&lt;span style=&quot;border-color: var(--border-color); color: rgb(51, 51, 51); font-family: Consolas, &amp;quot;Courier New&amp;quot;, monospace; text-align: left; background-color: rgb(253, 246, 227);&quot;&gt;&amp;nbsp;&lt;/span&gt;&lt;span style=&quot;border-color: var(--border-color); font-family: Consolas, &amp;quot;Courier New&amp;quot;, monospace; text-align: left; color: rgb(203, 75, 22);&quot;&gt;hp&lt;/span&gt;&lt;span style=&quot;border-color: var(--border-color); font-family: Consolas, &amp;quot;Courier New&amp;quot;, monospace; text-align: left; color: rgb(42, 161, 152);&quot;&gt;)&lt;/span&gt;" style="html=1;verticalAlign=bottom;endArrow=block;entryX=0;entryY=0;fontSize=8;" edge="1" target="54" parent="2" source="13">
                    <mxGeometry relative="1" as="geometry">
                        <mxPoint x="595" y="1040" as="sourcePoint"/>
                    </mxGeometry>
                </mxCell>
                <mxCell id="56" value="fft_norm" style="html=1;verticalAlign=bottom;endArrow=open;dashed=1;endSize=8;exitX=0;exitY=0.95;fontSize=8;" edge="1" source="54" parent="2" target="13">
                    <mxGeometry relative="1" as="geometry">
                        <mxPoint x="595" y="1116" as="targetPoint"/>
                    </mxGeometry>
                </mxCell>
                <mxCell id="58" value="&lt;span style=&quot;border-color: var(--border-color); font-family: Consolas, &amp;quot;Courier New&amp;quot;, monospace; text-align: left; color: rgb(38, 139, 210);&quot;&gt;extractFeatures&lt;/span&gt;&lt;span style=&quot;border-color: var(--border-color); font-family: Consolas, &amp;quot;Courier New&amp;quot;, monospace; text-align: left; color: rgb(42, 161, 152);&quot;&gt;(&lt;/span&gt;&lt;span style=&quot;border-color: var(--border-color); font-family: Consolas, &amp;quot;Courier New&amp;quot;, monospace; text-align: left; color: rgb(203, 75, 22);&quot;&gt;fft_norm&lt;/span&gt;&lt;span style=&quot;border-color: var(--border-color); font-family: Consolas, &amp;quot;Courier New&amp;quot;, monospace; text-align: left; color: rgb(42, 161, 152);&quot;&gt;,&lt;/span&gt;&lt;span style=&quot;border-color: var(--border-color); font-family: Consolas, &amp;quot;Courier New&amp;quot;, monospace; text-align: left; background-color: rgb(253, 246, 227);&quot;&gt;&amp;nbsp;&lt;/span&gt;&lt;span style=&quot;border-color: var(--border-color); font-family: Consolas, &amp;quot;Courier New&amp;quot;, monospace; text-align: left; color: rgb(203, 75, 22);&quot;&gt;hf_range&lt;/span&gt;&lt;span style=&quot;border-color: var(--border-color); font-family: Consolas, &amp;quot;Courier New&amp;quot;, monospace; text-align: left; color: rgb(42, 161, 152);&quot;&gt;,&lt;/span&gt;&lt;font style=&quot;border-color: var(--border-color); font-family: Consolas, &amp;quot;Courier New&amp;quot;, monospace; text-align: left;&quot; color=&quot;#333333&quot;&gt;&amp;nbsp;&lt;/font&gt;&lt;span style=&quot;border-color: var(--border-color); font-family: Consolas, &amp;quot;Courier New&amp;quot;, monospace; text-align: left; color: rgb(203, 75, 22);&quot;&gt;lf_range&lt;/span&gt;&lt;span style=&quot;border-color: var(--border-color); font-family: Consolas, &amp;quot;Courier New&amp;quot;, monospace; text-align: left; color: rgb(42, 161, 152);&quot;&gt;,&lt;/span&gt;&lt;span style=&quot;border-color: var(--border-color); font-family: Consolas, &amp;quot;Courier New&amp;quot;, monospace; text-align: left; color: rgb(203, 75, 22);&quot;&gt;vol_tres&lt;/span&gt;&lt;span style=&quot;border-color: var(--border-color); font-family: Consolas, &amp;quot;Courier New&amp;quot;, monospace; text-align: left; color: rgb(42, 161, 152);&quot;&gt;,&lt;/span&gt;&lt;span style=&quot;border-color: var(--border-color); font-family: Consolas, &amp;quot;Courier New&amp;quot;, monospace; text-align: left; background-color: rgb(253, 246, 227);&quot;&gt;&amp;nbsp;&lt;/span&gt;&lt;span style=&quot;border-color: var(--border-color); font-family: Consolas, &amp;quot;Courier New&amp;quot;, monospace; text-align: left; color: rgb(203, 75, 22);&quot;&gt;mode&lt;/span&gt;&lt;span style=&quot;border-color: var(--border-color); font-family: Consolas, &amp;quot;Courier New&amp;quot;, monospace; text-align: left; color: rgb(42, 161, 152);&quot;&gt;=&lt;/span&gt;&lt;span style=&quot;border-color: var(--border-color); font-family: Consolas, &amp;quot;Courier New&amp;quot;, monospace; text-align: left; color: rgb(42, 161, 152);&quot;&gt;&quot;&lt;/span&gt;&lt;span style=&quot;border-color: var(--border-color); font-family: Consolas, &amp;quot;Courier New&amp;quot;, monospace; text-align: left; color: rgb(133, 153, 0);&quot;&gt;on-off-set&lt;/span&gt;&lt;span style=&quot;border-color: var(--border-color); font-family: Consolas, &amp;quot;Courier New&amp;quot;, monospace; text-align: left; color: rgb(42, 161, 152);&quot;&gt;&quot;&lt;/span&gt;&lt;span style=&quot;border-color: var(--border-color); font-family: Consolas, &amp;quot;Courier New&amp;quot;, monospace; text-align: left; color: rgb(42, 161, 152);&quot;&gt;)&lt;/span&gt;" style="html=1;verticalAlign=bottom;endArrow=block;entryX=0;entryY=0;fontSize=8;" edge="1" target="57" parent="2" source="13">
                    <mxGeometry relative="1" as="geometry">
                        <mxPoint x="595" y="1130" as="sourcePoint"/>
                    </mxGeometry>
                </mxCell>
                <mxCell id="59" value="fetures" style="html=1;verticalAlign=bottom;endArrow=open;dashed=1;endSize=8;exitX=0;exitY=0.95;fontSize=8;" edge="1" source="57" parent="2" target="13">
                    <mxGeometry relative="1" as="geometry">
                        <mxPoint x="595" y="1206" as="targetPoint"/>
                    </mxGeometry>
                </mxCell>
                <mxCell id="61" value="&lt;font style=&quot;font-size: 8px;&quot;&gt;&lt;span style=&quot;border-color: var(--border-color); font-family: Consolas, &amp;quot;Courier New&amp;quot;, monospace; text-align: left; color: rgb(38, 139, 210);&quot;&gt;process_signal&lt;/span&gt;&lt;span style=&quot;border-color: var(--border-color); font-family: Consolas, &amp;quot;Courier New&amp;quot;, monospace; text-align: left; color: rgb(42, 161, 152);&quot;&gt;(&lt;/span&gt;&lt;span style=&quot;border-color: var(--border-color); font-family: Consolas, &amp;quot;Courier New&amp;quot;, monospace; text-align: left; color: rgb(203, 75, 22);&quot;&gt;audio&lt;/span&gt;&lt;span style=&quot;border-color: var(--border-color); font-family: Consolas, &amp;quot;Courier New&amp;quot;, monospace; text-align: left; color: rgb(42, 161, 152);&quot;&gt;,&lt;/span&gt;&lt;span style=&quot;color: rgb(51, 51, 51); font-family: Consolas, &amp;quot;Courier New&amp;quot;, monospace; text-align: left; background-color: rgb(253, 246, 227);&quot;&gt;&amp;nbsp;&lt;/span&gt;&lt;span style=&quot;border-color: var(--border-color); font-family: Consolas, &amp;quot;Courier New&amp;quot;, monospace; text-align: left; color: rgb(203, 75, 22);&quot;&gt;sampling_freq&lt;/span&gt;&lt;span style=&quot;border-color: var(--border-color); font-family: Consolas, &amp;quot;Courier New&amp;quot;, monospace; text-align: left; color: rgb(42, 161, 152);&quot;&gt;,&lt;/span&gt;&lt;span style=&quot;color: rgb(51, 51, 51); font-family: Consolas, &amp;quot;Courier New&amp;quot;, monospace; text-align: left; background-color: rgb(253, 246, 227);&quot;&gt;&amp;nbsp;&lt;/span&gt;&lt;span style=&quot;border-color: var(--border-color); font-family: Consolas, &amp;quot;Courier New&amp;quot;, monospace; text-align: left; color: rgb(203, 75, 22);&quot;&gt;mode&lt;/span&gt;&lt;span style=&quot;border-color: var(--border-color); font-family: Consolas, &amp;quot;Courier New&amp;quot;, monospace; text-align: left; color: rgb(42, 161, 152);&quot;&gt;)&lt;/span&gt;&lt;/font&gt;" style="html=1;verticalAlign=bottom;endArrow=block;entryX=0;entryY=0;fontSize=8;" edge="1" target="60" parent="2" source="13">
                    <mxGeometry relative="1" as="geometry">
                        <mxPoint x="595" y="1220" as="sourcePoint"/>
                    </mxGeometry>
                </mxCell>
                <mxCell id="62" value="return" style="html=1;verticalAlign=bottom;endArrow=open;dashed=1;endSize=8;exitX=0;exitY=0.95;fontSize=8;" edge="1" source="60" parent="2" target="13">
                    <mxGeometry relative="1" as="geometry">
                        <mxPoint x="595" y="1296" as="targetPoint"/>
                    </mxGeometry>
                </mxCell>
                <mxCell id="65" value="&lt;div style=&quot;color: rgb(51, 51, 51); font-family: Consolas, &amp;quot;Courier New&amp;quot;, monospace; line-height: 19px;&quot;&gt;&lt;span style=&quot;color: rgb(38, 139, 210);&quot;&gt;mfcc&lt;/span&gt;&lt;span style=&quot;color: rgb(42, 161, 152);&quot;&gt;(&lt;/span&gt;&lt;span style=&quot;color: rgb(203, 75, 22);&quot;&gt;y&lt;/span&gt;&lt;span style=&quot;color: rgb(42, 161, 152);&quot;&gt;,&lt;/span&gt; &lt;span style=&quot;color: rgb(203, 75, 22);&quot;&gt;sr&lt;/span&gt;&lt;span style=&quot;color: rgb(42, 161, 152);&quot;&gt;)&lt;/span&gt;&lt;/div&gt;" style="html=1;verticalAlign=bottom;endArrow=block;entryX=0;entryY=0;fontSize=8;" edge="1" target="64" parent="2" source="14">
                    <mxGeometry relative="1" as="geometry">
                        <mxPoint x="715" y="1230" as="sourcePoint"/>
                    </mxGeometry>
                </mxCell>
                <mxCell id="66" value="features" style="html=1;verticalAlign=bottom;endArrow=open;dashed=1;endSize=8;exitX=0;exitY=0.95;fontSize=8;" edge="1" source="64" parent="2" target="14">
                    <mxGeometry relative="1" as="geometry">
                        <mxPoint x="715" y="1306" as="targetPoint"/>
                    </mxGeometry>
                </mxCell>
                <mxCell id="74" value="&lt;div style=&quot;color: rgb(51, 51, 51); font-family: Consolas, &amp;quot;Courier New&amp;quot;, monospace; line-height: 19px;&quot;&gt;&lt;span style=&quot;color: rgb(38, 139, 210);&quot;&gt;dtw&lt;/span&gt;&lt;span style=&quot;color: rgb(42, 161, 152);&quot;&gt;(&lt;/span&gt;&lt;span style=&quot;color: rgb(101, 123, 131);&quot;&gt;template&lt;/span&gt;&lt;span style=&quot;color: rgb(42, 161, 152);&quot;&gt;,&lt;/span&gt; &lt;span style=&quot;color: rgb(101, 123, 131);&quot;&gt;sample&lt;/span&gt;&lt;span style=&quot;color: rgb(42, 161, 152);&quot;&gt;,&lt;/span&gt; &lt;span style=&quot;color: rgb(203, 75, 22);&quot;&gt;dist&lt;/span&gt;&lt;span style=&quot;color: rgb(42, 161, 152);&quot;&gt;)&lt;/span&gt;&lt;/div&gt;" style="html=1;verticalAlign=bottom;endArrow=block;entryX=0;entryY=0;labelBackgroundColor=none;fontSize=8;" edge="1" target="73" parent="2" source="11">
                    <mxGeometry relative="1" as="geometry">
                        <mxPoint x="865" y="1340" as="sourcePoint"/>
                    </mxGeometry>
                </mxCell>
                <mxCell id="75" value="distance" style="html=1;verticalAlign=bottom;endArrow=open;dashed=1;endSize=8;exitX=0;exitY=0.95;labelBackgroundColor=none;fontSize=8;" edge="1" source="73" parent="2" target="11">
                    <mxGeometry relative="1" as="geometry">
                        <mxPoint x="865" y="1416" as="targetPoint"/>
                    </mxGeometry>
                </mxCell>
            </root>
        </mxGraphModel>
    </diagram>
</mxfile>